<svg id="Layer_1" data-name="Layer 1" xmlns="http://www.w3.org/2000/svg" viewBox="0 0 96.5 95.72"><title>LAC</title><path d="M19,82.42c-1.4.8-2.9,1.6-4.3,2.5-1.5-2.6-3.1-5.2-4.7-7.9-2.4,1.5-4.8,3-7.3,4.5A35.91,35.91,0,0,1,0,76.82c2.4-1.4,4.8-2.9,7.2-4.4a39.82,39.82,0,0,0-2.3-4.1c-.8-1.3-1.5-2.6-2.3-4,1.4-.8,2.8-1.7,4.2-2.5,1.6,2.6,3.2,5.3,4.8,7.9a6.48,6.48,0,0,0,1.7-.9c2.7-1.6,5.5-3.3,8.2-4.9,2.4-1.4,4.7-2.8,7.1-4.2,2.7-1.6,5.4-3.1,8.1-4.69l8.1-4.81A1.29,1.29,0,0,0,45.5,49V27.82c0-4.29.1-8.6.2-12.79V13.82H36.5v-5a27.33,27.33,0,0,1,3-.09h6.2c.1-2.9.1-5.7.2-8.6A11.83,11.83,0,0,1,48.6,0h2.6c.3,2.89-.1,5.7-.1,8.59a16.33,16.33,0,0,0,3.1.1h6.1v5c-1,.2-2,0-3,.1H51.1c-.2,6.1.1,12.1.1,18.1v18C62.4,56.62,73.7,63.32,85,70c1.7-2.7,3.2-5.4,4.8-8.1,1.4.8,2.8,1.7,4.2,2.5-1.4,2.8-3.2,5.3-4.7,8.1,2.4,1.6,4.9,2.9,7.2,4.5-.9,1.6-1.8,3.1-2.7,4.6-2.4-1.5-4.8-3-7.3-4.5-1.7,2.6-3.1,5.3-4.8,7.9-1.4-.8-2.8-1.6-4.3-2.5,1.6-2.6,3.1-5.3,4.6-7.9-.1-.1-.1-.2-.2-.3-11.2-6.5-22.5-12.9-33.7-19.4-11.2,6.5-22.4,13-33.7,19.4.1-.1.1.1,0,.2C15.9,77.12,17.5,79.82,19,82.42Z"/><path d="M85.8,46v1.5a.58.58,0,0,1-.6.6H73.9a.58.58,0,0,1-.6-.6V46c.8-.5,1.8-.2,2.6-.6,0-.8-.4-2.1-1.6-5a7.72,7.72,0,0,0-1.5-.2H68.4c-1.1,0-1.1.1-1.5,1.1a25.82,25.82,0,0,0-.8,2.6,4.87,4.87,0,0,0-.1,1.2,3.23,3.23,0,0,0,1.8.6c.9.1,1.1.3,1.1,1.2v.2c0,.8-.2,1.1-1,1.1H61c-.8,0-1.1-.2-1.1-1v-1a.37.37,0,0,1,.1-.3c.1,0,.1-.1.2-.1a3,3,0,0,0,2.6-2c.8-1.9,1.6-3.7,2.4-5.6,2-4.7,3.9-9.4,5.9-14.1a24.73,24.73,0,0,1,3.8.5c.6,1.6,1.3,3.2,1.9,4.8,2,5.1,4,10.1,6,15.2a1.93,1.93,0,0,0,1.3,1.2A9.85,9.85,0,0,1,85.8,46Zm-12.4-8.8c-.8-2-1.6-3.8-2.4-5.9-.9,2.1-1.7,4-2.5,5.9Z"/><path d="M30.5,39.22c.6,0,1.2.1,1.8.1.8.1,1,.4.9,1.2-.4,2.4-.7,4.7-1,7.2-.2,0-.4.1-.6.1H13.2c-1,0-1.1-.1-1.1-1.2V46a.68.68,0,0,1,.7-.7c.4-.1.7-.1,1.1-.2,1-.19,1.1-.4,1.1-1.4V28.82c0-1.5-.3-1.9-1.7-2.2a3.44,3.44,0,0,0-.9-.1c-.5-.1-.8-.3-.8-.9v-.8c.1-.5.3-.8.8-.8H23.8c.1,0,.3.1.4.1.6.4.4,1.1.3,1.6s-.3.6-.7.7a4.25,4.25,0,0,0-1.1.2,1.42,1.42,0,0,0-1.2,1.5v15.2c0,1.3.2,1.5,1.4,1.5s2.3-.1,3.4-.2a3.28,3.28,0,0,0,2.6-1.8c.5-.9.8-1.8,1.2-2.7A3.55,3.55,0,0,0,30.5,39.22Z"/><path d="M45.6,95.72a13.37,13.37,0,0,1-5.9-1.3,11.25,11.25,0,0,1-6-7.6,9.63,9.63,0,0,1-.4-3.4,14.55,14.55,0,0,1,1.4-5.8,12.17,12.17,0,0,1,4.7-5.1,13.13,13.13,0,0,1,4.3-1.6,11.68,11.68,0,0,1,3.7-.2,13.37,13.37,0,0,1,6.4,2,2.35,2.35,0,0,1,1.3,2.4v2.5a1.11,1.11,0,0,1-.6,1.1,1.08,1.08,0,0,1-1.3-.6,9.29,9.29,0,0,1-.5-1,6.1,6.1,0,0,0-4.4-3.7,6.63,6.63,0,0,0-5.3.7A7.29,7.29,0,0,0,40,78a9.59,9.59,0,0,0-.7,4.1v1.7a10.3,10.3,0,0,0,2.2,6.6,6.22,6.22,0,0,0,3.5,2.2,7.64,7.64,0,0,0,7.2-2.1,12.67,12.67,0,0,1,1.3-1.1,1.21,1.21,0,0,1,1.5-.1c.5.4.5.8.3,1.5a6,6,0,0,1-2.1,2.4,11.68,11.68,0,0,1-5.1,2.2C47.4,95.52,46.5,95.62,45.6,95.72Z"/><path d="M60.7,86.72a2.75,2.75,0,0,0,2.5,0c.8-.4,1-1.3,1.3-2.1h1.2a1,1,0,0,0,.1.3c-.1.9-.3,1.9-.5,2.9H56.5V87a.75.75,0,0,0,.5-.1c.6-.2.7-.4.7-1v-6.2a1,1,0,0,0-.9-1.19,1.09,1.09,0,0,0-.5-.1c0-.1-.1-.2-.1-.31v-.3a23,23,0,0,1,5.7-.1v.81a1,1,0,0,0-.5.09c-.7.31-.9.41-.9,1.2v4.1A12.74,12.74,0,0,1,60.7,86.72Z"/><path d="M60.8,91.82H59.3a.92.92,0,0,1-1-.9c0-.5.4-.8,1-.8h3.2a.84.84,0,0,1,.9.9.9.9,0,0,1-.9.9A9.7,9.7,0,0,0,60.8,91.82Z"/></svg>